<svg xmlns="http://www.w3.org/2000/svg" width="210mm" height="105mm" viewBox="0 0 210 105">
<style>
text{font-family:Arial,sans-serif;font-size:3px;fill:#eee}
.title{font-size:5px;font-weight:bold}
.box{stroke:#eee;stroke-width:0.45;fill:#111}
.line{stroke:#d4af37;stroke-width:0.55;fill:none}
.dash{stroke:#aaa;stroke-width:0.4;fill:none;stroke-dasharray:1 1}
</style>
<rect width="210" height="105" fill="#0b0b0b"/>

<text x="5" y="8" class="title">HDB-100 — Chassis / Power Board — outline conceitual</text>
<path d="M20 85 L190 85 L200 70 L190 30 L170 15 L40 15 L20 30 L10 70 Z" class="box"/>
<circle cx="105" cy="50" r="11" class="line"/><text x="96" y="51">Ø22 ventosa</text>
<rect x="78" y="65" width="55" height="13" class="dash"/><text x="88" y="73">Bateria 2S</text>
<rect x="55" y="38" width="25" height="25" class="dash"/><text x="59" y="51">TB6612</text>
<rect x="140" y="38" width="32" height="25" class="dash"/><text x="144" y="49">ESC/MOSFET</text>
<rect x="95" y="18" width="20" height="8" class="line"/><text x="98" y="24">XT30</text>
<rect x="62" y="83" width="30" height="4" class="line"/><text x="62" y="94">J1 Brain</text>
<rect x="120" y="83" width="30" height="4" class="line"/><text x="120" y="94">J2 Brain</text>

</svg>
